<svg xmlns="http://www.w3.org/2000/svg" xmlns:xlink="http://www.w3.org/1999/xlink" width="500" zoomAndPan="magnify" viewBox="0 0 375 374.999991" height="500" preserveAspectRatio="xMidYMid meet" version="1.0"><defs><g/><clipPath id="7034a83cb1"><path d="M 158 118 L 215 118 L 215 190.710938 L 158 190.710938 Z M 158 118 " clip-rule="nonzero"/></clipPath><clipPath id="8d8e67e332"><path d="M 165 114.960938 L 172 114.960938 L 172 131 L 165 131 Z M 165 114.960938 " clip-rule="nonzero"/></clipPath><clipPath id="f12fdabf79"><path d="M 177 114.960938 L 184 114.960938 L 184 131 L 177 131 Z M 177 114.960938 " clip-rule="nonzero"/></clipPath><clipPath id="214b7f247c"><path d="M 189 114.960938 L 196 114.960938 L 196 131 L 189 131 Z M 189 114.960938 " clip-rule="nonzero"/></clipPath><clipPath id="881d3eccdc"><path d="M 200 114.960938 L 208 114.960938 L 208 131 L 200 131 Z M 200 114.960938 " clip-rule="nonzero"/></clipPath></defs><g clip-path="url(#7034a83cb1)"><path fill="#ffffff" d="M 214.648438 169.75 C 214.59375 169.785156 213.382812 170.632812 212.75 171.074219 C 212.03125 171.566406 212.117188 171.507812 211.738281 171.773438 C 211.191406 171.933594 210.765625 172.0625 210.226562 172.21875 L 210.226562 186.433594 L 162.472656 186.433594 L 162.472656 122.910156 L 165.164062 122.910156 L 165.164062 118.484375 L 161.664062 118.484375 C 159.667969 118.484375 158.050781 120.109375 158.050781 122.101562 L 158.050781 187.234375 C 158.050781 189.234375 159.667969 190.855469 161.664062 190.855469 L 211.03125 190.855469 C 213.03125 190.855469 214.648438 189.234375 214.648438 187.234375 L 214.648438 169.75 L 214.664062 169.738281 L 214.648438 169.75 " fill-opacity="1" fill-rule="nonzero"/></g><path fill="#ffffff" d="M 177.101562 118.484375 L 171.703125 118.484375 L 171.703125 122.910156 L 177.101562 122.910156 L 177.101562 118.484375 " fill-opacity="1" fill-rule="nonzero"/><path fill="#ffffff" d="M 200.992188 118.484375 L 195.585938 118.484375 L 195.585938 122.910156 L 200.992188 122.910156 L 200.992188 118.484375 " fill-opacity="1" fill-rule="nonzero"/><path fill="#ffffff" d="M 189.046875 118.484375 L 183.644531 118.484375 L 183.644531 122.910156 L 189.046875 122.910156 L 189.046875 118.484375 " fill-opacity="1" fill-rule="nonzero"/><path fill="#ffffff" d="M 210.226562 146.160156 L 214.648438 142.691406 L 214.648438 122.101562 C 214.648438 120.109375 213.03125 118.484375 211.03125 118.484375 L 207.53125 118.484375 L 207.53125 122.910156 L 210.226562 122.910156 L 210.226562 146.160156 " fill-opacity="1" fill-rule="nonzero"/><g clip-path="url(#8d8e67e332)"><path fill="#ffffff" d="M 165.160156 127.160156 C 165.625 131.007812 171.238281 130.988281 171.699219 127.160156 C 171.699219 126.71875 171.871094 125.300781 170.492188 124.195312 C 170.492188 121.320312 170.492188 119.425781 170.492188 115.726562 C 170.492188 115.296875 170.144531 114.945312 169.710938 114.945312 L 167.148438 114.945312 C 166.71875 114.945312 166.363281 115.296875 166.363281 115.726562 C 166.363281 120.738281 166.363281 121.054688 166.363281 124.195312 C 165.023438 125.273438 165.160156 126.632812 165.160156 127.160156 " fill-opacity="1" fill-rule="nonzero"/></g><g clip-path="url(#f12fdabf79)"><path fill="#ffffff" d="M 177.101562 127.160156 C 177.445312 129.988281 181.027344 131.101562 182.894531 128.882812 C 184.0625 127.5 183.902344 125.371094 182.4375 124.195312 C 182.4375 121.0625 182.4375 118.710938 182.4375 115.726562 C 182.4375 115.296875 182.089844 114.945312 181.660156 114.945312 L 179.089844 114.945312 C 178.660156 114.945312 178.308594 115.296875 178.308594 115.726562 C 178.308594 120.738281 178.308594 121.054688 178.308594 124.195312 C 176.957031 125.285156 177.101562 126.703125 177.101562 127.160156 " fill-opacity="1" fill-rule="nonzero"/></g><g clip-path="url(#214b7f247c)"><path fill="#ffffff" d="M 189.800781 128.882812 C 191.671875 131.101562 195.246094 129.984375 195.585938 127.160156 C 195.585938 126.71875 195.765625 125.300781 194.382812 124.195312 C 194.382812 121.0625 194.382812 118.710938 194.382812 115.726562 C 194.382812 115.296875 194.035156 114.945312 193.605469 114.945312 L 191.035156 114.945312 C 190.605469 114.945312 190.253906 115.296875 190.253906 115.726562 C 190.253906 120.738281 190.253906 121.054688 190.253906 124.195312 C 188.804688 125.355469 188.617188 127.488281 189.800781 128.882812 " fill-opacity="1" fill-rule="nonzero"/></g><g clip-path="url(#881d3eccdc)"><path fill="#ffffff" d="M 204.261719 130.058594 C 207.355469 130.058594 208.742188 126.136719 206.324219 124.195312 C 206.324219 121.0625 206.324219 118.710938 206.324219 115.726562 C 206.324219 115.296875 205.980469 114.945312 205.550781 114.945312 L 202.980469 114.945312 C 202.550781 114.945312 202.203125 115.296875 202.203125 115.726562 C 202.203125 120.738281 202.203125 121.054688 202.203125 124.195312 C 199.773438 126.144531 201.175781 130.058594 204.261719 130.058594 " fill-opacity="1" fill-rule="nonzero"/></g><path fill="#ffffff" d="M 204.304688 135.027344 L 168.46875 135.027344 L 168.46875 136.234375 L 204.304688 136.234375 L 204.304688 135.027344 " fill-opacity="1" fill-rule="nonzero"/><path fill="#ffffff" d="M 204.304688 141.785156 L 168.46875 141.785156 L 168.46875 142.992188 L 204.304688 142.992188 L 204.304688 141.785156 " fill-opacity="1" fill-rule="nonzero"/><path fill="#ffffff" d="M 204.304688 148.542969 L 168.46875 148.542969 L 168.46875 149.75 L 204.304688 149.75 L 204.304688 148.542969 " fill-opacity="1" fill-rule="nonzero"/><path fill="#ffffff" d="M 202.539062 155.300781 C 198.667969 155.300781 172.308594 155.300781 168.46875 155.300781 C 168.46875 155.742188 168.46875 156.070312 168.46875 156.507812 C 172.570312 156.507812 197.085938 156.507812 201.167969 156.507812 C 201.351562 156.347656 202.402344 155.425781 202.539062 155.300781 " fill-opacity="1" fill-rule="nonzero"/><path fill="#ffffff" d="M 168.46875 162.664062 L 168.46875 163.269531 L 197.023438 163.269531 L 197.726562 162.058594 L 168.46875 162.058594 L 168.46875 162.664062 " fill-opacity="1" fill-rule="nonzero"/><path fill="#ffffff" d="M 168.46875 169.421875 L 168.46875 170.027344 L 193.089844 170.027344 L 193.433594 169.421875 L 193.789062 168.820312 L 168.46875 168.820312 L 168.46875 169.421875 " fill-opacity="1" fill-rule="nonzero"/><path fill="#ffffff" d="M 168.46875 176.179688 L 168.46875 176.785156 L 204.304688 176.785156 L 204.304688 175.578125 L 190.265625 175.578125 L 189.765625 175.726562 L 189.851562 175.578125 L 168.46875 175.578125 L 168.46875 176.179688 " fill-opacity="1" fill-rule="nonzero"/><path fill="#ffffff" d="M 254.113281 130.453125 C 248.820312 123.695312 248.40625 122.460938 245.8125 122.460938 C 244.046875 122.460938 243.347656 123.265625 240.636719 125.394531 L 250.792969 138.359375 L 253.402344 136.3125 C 255.21875 134.886719 255.539062 132.265625 254.113281 130.453125 " fill-opacity="1" fill-rule="nonzero"/><path fill="#ffffff" d="M 235.378906 129.511719 C 239.113281 134.28125 241.757812 137.652344 245.539062 142.480469 L 248.339844 140.28125 C 242.101562 132.316406 244.347656 135.183594 238.183594 127.320312 L 235.378906 129.511719 " fill-opacity="1" fill-rule="nonzero"/><path fill="#ffffff" d="M 194.082031 172.339844 C 194.382812 171.828125 193.617188 173.144531 200.460938 161.382812 C 202.621094 164.132812 203.96875 165.851562 206.25 168.761719 C 193.625 172.480469 195.375 171.960938 194.082031 172.339844 Z M 232.925781 131.4375 C 229.578125 134.058594 206.632812 152.042969 203.101562 154.808594 C 203.089844 154.820312 203.089844 154.8125 203.078125 154.824219 C 200.320312 157.253906 200.84375 156.792969 200.738281 156.890625 C 200.308594 157.625 190.269531 174.859375 189.765625 175.726562 C 193.078125 174.75 208.894531 170.097656 210.679688 169.574219 C 212.761719 168.128906 210.824219 169.46875 213.242188 167.792969 C 216.289062 165.40625 239.757812 147.007812 243.082031 144.402344 C 234.296875 133.183594 241.730469 142.667969 232.925781 131.4375 " fill-opacity="1" fill-rule="nonzero"/><g fill="#ffffff" fill-opacity="1"><g transform="translate(61.690708, 230.346414)"><g><path d="M 15.21875 -7.875 L 15.21875 -16.078125 L 13.796875 -16.078125 L 13.796875 -19.828125 L 21.421875 -19.796875 L 21.421875 -16.078125 L 20.03125 -16.078125 L 20.03125 0 L 16.265625 0 L 7.015625 -11.921875 L 7.015625 -3.765625 L 8.421875 -3.765625 L 8.421875 0 L 0.796875 0 L 0.796875 -3.765625 L 2.1875 -3.765625 L 2.1875 -16.078125 L 0.796875 -16.078125 L 0.796875 -19.828125 L 5.921875 -19.796875 Z M 15.21875 -7.875 "/></g></g></g><g fill="#ffffff" fill-opacity="1"><g transform="translate(96.762058, 230.346414)"><g><path d="M 11.671875 -16.484375 C 10.328125 -16.484375 9.25 -16.191406 8.4375 -15.609375 C 7.625 -15.023438 7.035156 -14.234375 6.671875 -13.234375 C 6.316406 -12.234375 6.140625 -11.125 6.140625 -9.90625 C 6.140625 -8.695312 6.316406 -7.59375 6.671875 -6.59375 C 7.035156 -5.59375 7.625 -4.796875 8.4375 -4.203125 C 9.25 -3.617188 10.328125 -3.328125 11.671875 -3.328125 C 13.003906 -3.328125 14.070312 -3.617188 14.875 -4.203125 C 15.675781 -4.796875 16.257812 -5.59375 16.625 -6.59375 C 16.988281 -7.59375 17.171875 -8.695312 17.171875 -9.90625 C 17.171875 -11.125 16.988281 -12.234375 16.625 -13.234375 C 16.257812 -14.234375 15.675781 -15.023438 14.875 -15.609375 C 14.070312 -16.191406 13.003906 -16.484375 11.671875 -16.484375 Z M 11.671875 -20.25 C 14.015625 -20.25 15.945312 -19.785156 17.46875 -18.859375 C 19 -17.929688 20.140625 -16.6875 20.890625 -15.125 C 21.640625 -13.5625 22.015625 -11.820312 22.015625 -9.90625 C 22.015625 -8 21.640625 -6.265625 20.890625 -4.703125 C 20.140625 -3.148438 19 -1.910156 17.46875 -0.984375 C 15.945312 -0.0546875 14.015625 0.40625 11.671875 0.40625 C 9.347656 0.40625 7.410156 -0.0546875 5.859375 -0.984375 C 4.316406 -1.910156 3.171875 -3.148438 2.421875 -4.703125 C 1.671875 -6.265625 1.296875 -8 1.296875 -9.90625 C 1.296875 -11.820312 1.671875 -13.5625 2.421875 -15.125 C 3.171875 -16.6875 4.316406 -17.929688 5.859375 -18.859375 C 7.410156 -19.785156 9.347656 -20.25 11.671875 -20.25 Z M 11.671875 -20.25 "/></g></g></g><g fill="#ffffff" fill-opacity="1"><g transform="translate(132.944628, 230.346414)"><g><path d="M 0.59375 -19.828125 L 18.40625 -19.765625 L 18.40625 -14.015625 L 14.875 -14.015625 L 14.640625 -16.0625 L 11.921875 -16.078125 L 11.921875 -3.765625 L 13.3125 -3.765625 L 13.3125 0 L 5.65625 0 L 5.65625 -3.765625 L 7.078125 -3.765625 L 7.078125 -16.078125 L 4.296875 -16.0625 L 4.109375 -14.015625 L 0.59375 -14.015625 Z M 0.59375 -19.828125 "/></g></g></g><g fill="#ffffff" fill-opacity="1"><g transform="translate(164.713185, 230.346414)"><g><path d="M 0.796875 -19.796875 L 16.921875 -19.796875 L 16.921875 -14.515625 L 13.578125 -14.515625 L 13.375 -16.078125 L 7.015625 -16.078125 L 7.015625 -11.765625 L 12.65625 -11.765625 L 12.65625 -8.03125 L 7.015625 -8.03125 L 7.015625 -3.765625 L 13.375 -3.765625 L 13.578125 -5.3125 L 16.921875 -5.3125 L 16.921875 0 L 0.796875 0 L 0.796875 -3.765625 L 2.1875 -3.765625 L 2.1875 -16.078125 L 0.796875 -16.078125 Z M 0.796875 -19.796875 "/></g></g></g><g fill="#ffffff" fill-opacity="1"><g transform="translate(195.030986, 230.346414)"><g><path d="M 0.59375 -19.828125 L 18.40625 -19.765625 L 18.40625 -14.015625 L 14.875 -14.015625 L 14.640625 -16.0625 L 11.921875 -16.078125 L 11.921875 -3.765625 L 13.3125 -3.765625 L 13.3125 0 L 5.65625 0 L 5.65625 -3.765625 L 7.078125 -3.765625 L 7.078125 -16.078125 L 4.296875 -16.0625 L 4.109375 -14.015625 L 0.59375 -14.015625 Z M 0.59375 -19.828125 "/></g></g></g><g fill="#ffffff" fill-opacity="1"><g transform="translate(226.799553, 230.346414)"><g><path d="M 8.765625 -19.796875 L 13.640625 -19.796875 L 20.375 -3.765625 L 21.859375 -3.765625 L 21.859375 0 L 13.734375 0 L 13.734375 -3.765625 L 15.34375 -3.765625 L 14.390625 -6.515625 L 8.0625 -6.515625 L 7.09375 -3.765625 L 8.703125 -3.765625 L 8.703125 0 L 0.59375 0 L 0.59375 -3.765625 L 2.03125 -3.765625 Z M 9.265625 -9.84375 L 13.21875 -9.84375 L 11.234375 -15.46875 Z M 9.265625 -9.84375 "/></g></g></g><g fill="#ffffff" fill-opacity="1"><g transform="translate(262.086973, 230.346414)"><g><path d="M 15.5 -13.25 L 12.375 -13.25 L 12.21875 -15.21875 C 11.769531 -15.632812 11.203125 -16.019531 10.515625 -16.375 C 9.828125 -16.738281 9 -16.921875 8.03125 -16.921875 C 7.332031 -16.921875 6.773438 -16.769531 6.359375 -16.46875 C 5.953125 -16.175781 5.75 -15.726562 5.75 -15.125 C 5.75 -14.445312 6.191406 -13.863281 7.078125 -13.375 L 13.1875 -10.375 C 15.382812 -9.28125 16.484375 -7.65625 16.484375 -5.5 C 16.484375 -4.28125 16.164062 -3.226562 15.53125 -2.34375 C 14.894531 -1.457031 14.003906 -0.773438 12.859375 -0.296875 C 11.710938 0.171875 10.378906 0.40625 8.859375 0.40625 C 7.421875 0.40625 6.195312 0.222656 5.1875 -0.140625 C 4.175781 -0.515625 3.359375 -0.945312 2.734375 -1.4375 C 2.109375 -1.9375 1.648438 -2.367188 1.359375 -2.734375 C 1.066406 -3.109375 0.921875 -3.296875 0.921875 -3.296875 L 0.921875 -6.578125 L 4.015625 -6.578125 L 4.140625 -5.0625 C 4.367188 -4.769531 4.6875 -4.453125 5.09375 -4.109375 C 5.507812 -3.773438 6.035156 -3.488281 6.671875 -3.25 C 7.304688 -3.019531 8.066406 -2.90625 8.953125 -2.90625 C 9.796875 -2.90625 10.457031 -3.0625 10.9375 -3.375 C 11.425781 -3.695312 11.671875 -4.113281 11.671875 -4.625 C 11.671875 -4.957031 11.585938 -5.257812 11.421875 -5.53125 C 11.253906 -5.8125 10.914062 -6.085938 10.40625 -6.359375 L 4.53125 -9.265625 C 3.28125 -9.878906 2.363281 -10.578125 1.78125 -11.359375 C 1.207031 -12.140625 0.921875 -13.085938 0.921875 -14.203125 C 0.921875 -16.035156 1.546875 -17.5 2.796875 -18.59375 C 4.054688 -19.695312 5.769531 -20.25 7.9375 -20.25 C 9.289062 -20.25 10.445312 -20.054688 11.40625 -19.671875 C 12.363281 -19.296875 13.140625 -18.863281 13.734375 -18.375 C 14.335938 -17.894531 14.78125 -17.460938 15.0625 -17.078125 C 15.351562 -16.703125 15.5 -16.515625 15.5 -16.515625 Z M 15.5 -13.25 "/></g></g></g><g fill="#ffffff" fill-opacity="1"><g transform="translate(292.188709, 230.346414)"><g><path d="M 12.171875 -19.796875 L 20.6875 -19.796875 L 20.6875 -16.078125 L 19.234375 -16.078125 L 13.25 -11.234375 L 19.265625 -3.765625 L 20.8125 -3.765625 L 20.8125 0 L 16.359375 0 L 9.6875 -8.34375 L 6.921875 -6.109375 L 6.921875 -3.765625 L 8.3125 -3.765625 L 8.3125 0 L 0.671875 0 L 0.671875 -3.765625 L 2.0625 -3.765625 L 2.0625 -16.078125 L 0.671875 -16.078125 L 0.671875 -19.828125 L 8.3125 -19.796875 L 8.3125 -16.0625 L 6.921875 -16.078125 L 6.921875 -10.59375 L 13.609375 -16.078125 L 12.171875 -16.078125 Z M 12.171875 -19.796875 "/></g></g></g><g fill="#ffffff" fill-opacity="1"><g transform="translate(112.568203, 254.523146)"><g><path d="M 5.578125 -8.265625 C 4.890625 -8.265625 4.332031 -8.109375 3.90625 -7.796875 C 3.476562 -7.484375 3.164062 -7.066406 2.96875 -6.546875 C 2.78125 -6.035156 2.6875 -5.457031 2.6875 -4.8125 C 2.6875 -4.1875 2.78125 -3.609375 2.96875 -3.078125 C 3.164062 -2.554688 3.476562 -2.132812 3.90625 -1.8125 C 4.332031 -1.5 4.890625 -1.34375 5.578125 -1.34375 C 6.265625 -1.34375 6.820312 -1.5 7.25 -1.8125 C 7.675781 -2.132812 7.984375 -2.554688 8.171875 -3.078125 C 8.359375 -3.609375 8.453125 -4.1875 8.453125 -4.8125 C 8.453125 -5.457031 8.359375 -6.035156 8.171875 -6.546875 C 7.984375 -7.066406 7.675781 -7.484375 7.25 -7.796875 C 6.820312 -8.109375 6.265625 -8.265625 5.578125 -8.265625 Z M 5.578125 -9.84375 C 6.691406 -9.84375 7.609375 -9.613281 8.328125 -9.15625 C 9.046875 -8.707031 9.582031 -8.101562 9.9375 -7.34375 C 10.289062 -6.582031 10.46875 -5.738281 10.46875 -4.8125 C 10.46875 -3.882812 10.289062 -3.039062 9.9375 -2.28125 C 9.582031 -1.53125 9.046875 -0.929688 8.328125 -0.484375 C 7.609375 -0.0351562 6.691406 0.1875 5.578125 0.1875 C 4.484375 0.1875 3.570312 -0.0351562 2.84375 -0.484375 C 2.113281 -0.929688 1.570312 -1.53125 1.21875 -2.28125 C 0.863281 -3.039062 0.6875 -3.882812 0.6875 -4.8125 C 0.6875 -5.738281 0.863281 -6.582031 1.21875 -7.34375 C 1.570312 -8.101562 2.113281 -8.707031 2.84375 -9.15625 C 3.570312 -9.613281 4.484375 -9.84375 5.578125 -9.84375 Z M 5.578125 -9.84375 "/></g></g></g><g fill="#ffffff" fill-opacity="1"><g transform="translate(125.213199, 254.523146)"><g><path d="M 7.515625 -3.265625 L 7.515625 -8.0625 L 6.828125 -8.0625 L 6.828125 -9.625 L 10.1875 -9.609375 L 10.1875 -8.0625 L 9.515625 -8.0625 L 9.515625 0 L 7.953125 0 L 3.125 -6.34375 L 3.125 -1.578125 L 3.796875 -1.578125 L 3.796875 0 L 0.4375 0 L 0.4375 -1.578125 L 1.109375 -1.578125 L 1.109375 -8.0625 L 0.4375 -8.0625 L 0.4375 -9.625 L 2.6875 -9.609375 Z M 7.515625 -3.265625 "/></g></g></g><g fill="#ffffff" fill-opacity="1"><g transform="translate(137.318193, 254.523146)"><g><path d="M 0.4375 -9.609375 L 3.796875 -9.609375 L 3.796875 -8.0625 L 3.125 -8.0625 L 3.125 -1.578125 L 6.515625 -1.578125 L 6.59375 -2.328125 L 8 -2.328125 L 8 0 L 0.4375 0 L 0.4375 -1.578125 L 1.109375 -1.578125 L 1.109375 -8.0625 L 0.4375 -8.0625 Z M 0.4375 -9.609375 "/></g></g></g><g fill="#ffffff" fill-opacity="1"><g transform="translate(147.06819, 254.523146)"><g><path d="M 0.4375 -9.625 L 3.796875 -9.609375 L 3.796875 -8.0625 L 3.125 -8.0625 L 3.125 -1.578125 L 3.796875 -1.578125 L 3.796875 0 L 0.4375 0 L 0.4375 -1.578125 L 1.109375 -1.578125 L 1.109375 -8.0625 L 0.4375 -8.0625 Z M 0.4375 -9.625 "/></g></g></g><g fill="#ffffff" fill-opacity="1"><g transform="translate(152.768191, 254.523146)"><g><path d="M 7.515625 -3.265625 L 7.515625 -8.0625 L 6.828125 -8.0625 L 6.828125 -9.625 L 10.1875 -9.609375 L 10.1875 -8.0625 L 9.515625 -8.0625 L 9.515625 0 L 7.953125 0 L 3.125 -6.34375 L 3.125 -1.578125 L 3.796875 -1.578125 L 3.796875 0 L 0.4375 0 L 0.4375 -1.578125 L 1.109375 -1.578125 L 1.109375 -8.0625 L 0.4375 -8.0625 L 0.4375 -9.625 L 2.6875 -9.609375 Z M 7.515625 -3.265625 "/></g></g></g><g fill="#ffffff" fill-opacity="1"><g transform="translate(164.873187, 254.523146)"><g><path d="M 0.4375 -9.609375 L 8 -9.609375 L 8 -7.3125 L 6.59375 -7.3125 L 6.515625 -8.0625 L 3.125 -8.0625 L 3.125 -5.59375 L 5.921875 -5.59375 L 5.921875 -4.03125 L 3.125 -4.03125 L 3.125 -1.578125 L 6.515625 -1.578125 L 6.59375 -2.328125 L 8 -2.328125 L 8 0 L 0.4375 0 L 0.4375 -1.578125 L 1.109375 -1.578125 L 1.109375 -8.0625 L 0.4375 -8.0625 Z M 0.4375 -9.609375 "/></g></g></g><g fill="#ffffff" fill-opacity="1"><g transform="translate(174.623181, 254.523146)"><g/></g></g><g fill="#ffffff" fill-opacity="1"><g transform="translate(180.248186, 254.523146)"><g><path d="M 7.515625 -3.265625 L 7.515625 -8.0625 L 6.828125 -8.0625 L 6.828125 -9.625 L 10.1875 -9.609375 L 10.1875 -8.0625 L 9.515625 -8.0625 L 9.515625 0 L 7.953125 0 L 3.125 -6.34375 L 3.125 -1.578125 L 3.796875 -1.578125 L 3.796875 0 L 0.4375 0 L 0.4375 -1.578125 L 1.109375 -1.578125 L 1.109375 -8.0625 L 0.4375 -8.0625 L 0.4375 -9.625 L 2.6875 -9.609375 Z M 7.515625 -3.265625 "/></g></g></g><g fill="#ffffff" fill-opacity="1"><g transform="translate(192.353179, 254.523146)"><g><path d="M 5.578125 -8.265625 C 4.890625 -8.265625 4.332031 -8.109375 3.90625 -7.796875 C 3.476562 -7.484375 3.164062 -7.066406 2.96875 -6.546875 C 2.78125 -6.035156 2.6875 -5.457031 2.6875 -4.8125 C 2.6875 -4.1875 2.78125 -3.609375 2.96875 -3.078125 C 3.164062 -2.554688 3.476562 -2.132812 3.90625 -1.8125 C 4.332031 -1.5 4.890625 -1.34375 5.578125 -1.34375 C 6.265625 -1.34375 6.820312 -1.5 7.25 -1.8125 C 7.675781 -2.132812 7.984375 -2.554688 8.171875 -3.078125 C 8.359375 -3.609375 8.453125 -4.1875 8.453125 -4.8125 C 8.453125 -5.457031 8.359375 -6.035156 8.171875 -6.546875 C 7.984375 -7.066406 7.675781 -7.484375 7.25 -7.796875 C 6.820312 -8.109375 6.265625 -8.265625 5.578125 -8.265625 Z M 5.578125 -9.84375 C 6.691406 -9.84375 7.609375 -9.613281 8.328125 -9.15625 C 9.046875 -8.707031 9.582031 -8.101562 9.9375 -7.34375 C 10.289062 -6.582031 10.46875 -5.738281 10.46875 -4.8125 C 10.46875 -3.882812 10.289062 -3.039062 9.9375 -2.28125 C 9.582031 -1.53125 9.046875 -0.929688 8.328125 -0.484375 C 7.609375 -0.0351562 6.691406 0.1875 5.578125 0.1875 C 4.484375 0.1875 3.570312 -0.0351562 2.84375 -0.484375 C 2.113281 -0.929688 1.570312 -1.53125 1.21875 -2.28125 C 0.863281 -3.039062 0.6875 -3.882812 0.6875 -4.8125 C 0.6875 -5.738281 0.863281 -6.582031 1.21875 -7.34375 C 1.570312 -8.101562 2.113281 -8.707031 2.84375 -9.15625 C 3.570312 -9.613281 4.484375 -9.84375 5.578125 -9.84375 Z M 5.578125 -9.84375 "/></g></g></g><g fill="#ffffff" fill-opacity="1"><g transform="translate(204.998173, 254.523146)"><g><path d="M 0.28125 -9.625 L 8.671875 -9.609375 L 8.671875 -7.109375 L 7.1875 -7.109375 L 7.09375 -8.0625 L 5.46875 -8.0625 L 5.46875 -1.578125 L 6.15625 -1.578125 L 6.15625 0 L 2.78125 0 L 2.78125 -1.578125 L 3.46875 -1.578125 L 3.46875 -8.0625 L 1.828125 -8.0625 L 1.75 -7.109375 L 0.28125 -7.109375 Z M 0.28125 -9.625 "/></g></g></g><g fill="#ffffff" fill-opacity="1"><g transform="translate(215.40817, 254.523146)"><g><path d="M 0.4375 -9.609375 L 8 -9.609375 L 8 -7.3125 L 6.59375 -7.3125 L 6.515625 -8.0625 L 3.125 -8.0625 L 3.125 -5.59375 L 5.921875 -5.59375 L 5.921875 -4.03125 L 3.125 -4.03125 L 3.125 -1.578125 L 6.515625 -1.578125 L 6.59375 -2.328125 L 8 -2.328125 L 8 0 L 0.4375 0 L 0.4375 -1.578125 L 1.109375 -1.578125 L 1.109375 -8.0625 L 0.4375 -8.0625 Z M 0.4375 -9.609375 "/></g></g></g><g fill="#ffffff" fill-opacity="1"><g transform="translate(225.15817, 254.523146)"><g/></g></g><g fill="#ffffff" fill-opacity="1"><g transform="translate(230.783181, 254.523146)"><g><path d="M 4.359375 -9.609375 L 6.40625 -9.609375 L 9.78125 -1.578125 L 10.5 -1.578125 L 10.5 0 L 6.921875 0 L 6.921875 -1.578125 L 7.6875 -1.578125 L 7.09375 -3.171875 L 3.671875 -3.171875 L 3.09375 -1.578125 L 3.875 -1.578125 L 3.875 0 L 0.28125 0 L 0.28125 -1.578125 L 0.984375 -1.578125 Z M 4.1875 -4.5625 L 6.578125 -4.5625 L 5.390625 -7.828125 Z M 4.1875 -4.5625 "/></g></g></g><g fill="#ffffff" fill-opacity="1"><g transform="translate(243.038177, 254.523146)"><g><path d="M 3.71875 0 L 0.4375 0 L 0.4375 -1.578125 L 1.109375 -1.578125 L 1.109375 -8.0625 L 0.4375 -8.0625 L 0.4375 -9.609375 L 5.828125 -9.609375 C 6.359375 -9.609375 6.835938 -9.488281 7.265625 -9.25 C 7.703125 -9.007812 8.046875 -8.664062 8.296875 -8.21875 C 8.554688 -7.769531 8.6875 -7.222656 8.6875 -6.578125 C 8.6875 -5.941406 8.554688 -5.394531 8.296875 -4.9375 C 8.046875 -4.488281 7.703125 -4.140625 7.265625 -3.890625 C 6.835938 -3.648438 6.359375 -3.53125 5.828125 -3.53125 L 3.125 -3.53125 L 3.125 -1.578125 L 3.71875 -1.578125 Z M 3.125 -5.078125 L 5.265625 -5.078125 C 5.679688 -5.078125 6.019531 -5.21875 6.28125 -5.5 C 6.550781 -5.78125 6.6875 -6.140625 6.6875 -6.578125 C 6.6875 -7.023438 6.554688 -7.382812 6.296875 -7.65625 C 6.046875 -7.925781 5.703125 -8.0625 5.265625 -8.0625 L 3.125 -8.0625 Z M 3.125 -5.078125 "/></g></g></g><g fill="#ffffff" fill-opacity="1"><g transform="translate(253.478175, 254.523146)"><g><path d="M 3.71875 0 L 0.4375 0 L 0.4375 -1.578125 L 1.109375 -1.578125 L 1.109375 -8.0625 L 0.4375 -8.0625 L 0.4375 -9.609375 L 5.828125 -9.609375 C 6.359375 -9.609375 6.835938 -9.488281 7.265625 -9.25 C 7.703125 -9.007812 8.046875 -8.664062 8.296875 -8.21875 C 8.554688 -7.769531 8.6875 -7.222656 8.6875 -6.578125 C 8.6875 -5.941406 8.554688 -5.394531 8.296875 -4.9375 C 8.046875 -4.488281 7.703125 -4.140625 7.265625 -3.890625 C 6.835938 -3.648438 6.359375 -3.53125 5.828125 -3.53125 L 3.125 -3.53125 L 3.125 -1.578125 L 3.71875 -1.578125 Z M 3.125 -5.078125 L 5.265625 -5.078125 C 5.679688 -5.078125 6.019531 -5.21875 6.28125 -5.5 C 6.550781 -5.78125 6.6875 -6.140625 6.6875 -6.578125 C 6.6875 -7.023438 6.554688 -7.382812 6.296875 -7.65625 C 6.046875 -7.925781 5.703125 -8.0625 5.265625 -8.0625 L 3.125 -8.0625 Z M 3.125 -5.078125 "/></g></g></g></svg>