<svg xmlns="http://www.w3.org/2000/svg" xmlns:xlink="http://www.w3.org/1999/xlink" width="500" zoomAndPan="magnify" viewBox="0 0 375 374.999991" height="500" preserveAspectRatio="xMidYMid meet" version="1.0"><defs><clipPath id="ab6e3cde65"><path d="M 138.148438 153 L 196 153 L 196 225.308594 L 138.148438 225.308594 Z M 138.148438 153 " clip-rule="nonzero"/></clipPath><clipPath id="bf8c298217"><path d="M 145 149.558594 L 153 149.558594 L 153 165 L 145 165 Z M 145 149.558594 " clip-rule="nonzero"/></clipPath><clipPath id="f7ae477dab"><path d="M 157 149.558594 L 165 149.558594 L 165 165 L 157 165 Z M 157 149.558594 " clip-rule="nonzero"/></clipPath><clipPath id="e6f76ac392"><path d="M 169 149.558594 L 177 149.558594 L 177 165 L 169 165 Z M 169 149.558594 " clip-rule="nonzero"/></clipPath><clipPath id="a59e0046f7"><path d="M 181 149.558594 L 189 149.558594 L 189 165 L 181 165 Z M 181 149.558594 " clip-rule="nonzero"/></clipPath></defs><g clip-path="url(#ab6e3cde65)"><path fill="#0c1459" d="M 195.316406 204.347656 C 195.261719 204.382812 194.050781 205.230469 193.414062 205.671875 C 192.699219 206.164062 192.785156 206.105469 192.402344 206.371094 C 191.855469 206.53125 191.433594 206.660156 190.890625 206.816406 L 190.890625 221.03125 L 143.140625 221.03125 L 143.140625 157.507812 L 145.832031 157.507812 L 145.832031 153.082031 L 142.332031 153.082031 C 140.332031 153.082031 138.714844 154.707031 138.714844 156.699219 L 138.714844 221.832031 C 138.714844 223.832031 140.332031 225.457031 142.332031 225.457031 L 191.699219 225.457031 C 193.699219 225.457031 195.316406 223.832031 195.316406 221.832031 L 195.316406 204.347656 L 195.332031 204.335938 L 195.316406 204.347656 " fill-opacity="1" fill-rule="nonzero"/></g><path fill="#0c1459" d="M 157.769531 153.082031 L 152.371094 153.082031 L 152.371094 157.507812 L 157.769531 157.507812 L 157.769531 153.082031 " fill-opacity="1" fill-rule="nonzero"/><path fill="#0c1459" d="M 181.660156 153.082031 L 176.253906 153.082031 L 176.253906 157.507812 L 181.660156 157.507812 L 181.660156 153.082031 " fill-opacity="1" fill-rule="nonzero"/><path fill="#0c1459" d="M 169.714844 153.082031 L 164.308594 153.082031 L 164.308594 157.507812 L 169.714844 157.507812 L 169.714844 153.082031 " fill-opacity="1" fill-rule="nonzero"/><path fill="#0c1459" d="M 190.890625 180.757812 L 195.316406 177.289062 L 195.316406 156.699219 C 195.316406 154.707031 193.699219 153.082031 191.699219 153.082031 L 188.199219 153.082031 L 188.199219 157.507812 L 190.890625 157.507812 L 190.890625 180.757812 " fill-opacity="1" fill-rule="nonzero"/><g clip-path="url(#bf8c298217)"><path fill="#0c1459" d="M 145.828125 161.757812 C 146.292969 165.605469 151.90625 165.585938 152.367188 161.757812 C 152.367188 161.316406 152.535156 159.898438 151.160156 158.792969 C 151.160156 155.917969 151.160156 154.023438 151.160156 150.324219 C 151.160156 149.894531 150.8125 149.542969 150.378906 149.542969 L 147.8125 149.542969 C 147.386719 149.542969 147.03125 149.894531 147.03125 150.324219 C 147.03125 155.335938 147.03125 155.652344 147.03125 158.792969 C 145.691406 159.871094 145.828125 161.230469 145.828125 161.757812 " fill-opacity="1" fill-rule="nonzero"/></g><g clip-path="url(#f7ae477dab)"><path fill="#0c1459" d="M 157.769531 161.757812 C 158.113281 164.585938 161.695312 165.699219 163.5625 163.480469 C 164.726562 162.097656 164.570312 159.96875 163.105469 158.792969 C 163.105469 155.660156 163.105469 153.308594 163.105469 150.324219 C 163.105469 149.894531 162.757812 149.542969 162.328125 149.542969 L 159.757812 149.542969 C 159.328125 149.542969 158.976562 149.894531 158.976562 150.324219 C 158.976562 155.335938 158.976562 155.652344 158.976562 158.792969 C 157.625 159.882812 157.769531 161.300781 157.769531 161.757812 " fill-opacity="1" fill-rule="nonzero"/></g><g clip-path="url(#e6f76ac392)"><path fill="#0c1459" d="M 170.46875 163.480469 C 172.339844 165.699219 175.914062 164.582031 176.253906 161.757812 C 176.253906 161.316406 176.429688 159.898438 175.050781 158.792969 C 175.050781 155.660156 175.050781 153.308594 175.050781 150.324219 C 175.050781 149.894531 174.703125 149.542969 174.273438 149.542969 L 171.703125 149.542969 C 171.273438 149.542969 170.921875 149.894531 170.921875 150.324219 C 170.921875 155.335938 170.921875 155.652344 170.921875 158.792969 C 169.472656 159.953125 169.285156 162.085938 170.46875 163.480469 " fill-opacity="1" fill-rule="nonzero"/></g><g clip-path="url(#a59e0046f7)"><path fill="#0c1459" d="M 184.929688 164.65625 C 188.023438 164.65625 189.410156 160.734375 186.992188 158.792969 C 186.992188 155.660156 186.992188 153.308594 186.992188 150.324219 C 186.992188 149.894531 186.648438 149.542969 186.21875 149.542969 L 183.648438 149.542969 C 183.21875 149.542969 182.871094 149.894531 182.871094 150.324219 C 182.871094 155.335938 182.871094 155.652344 182.871094 158.792969 C 180.441406 160.742188 181.839844 164.65625 184.929688 164.65625 " fill-opacity="1" fill-rule="nonzero"/></g><path fill="#0c1459" d="M 184.96875 169.625 L 149.136719 169.625 L 149.136719 170.832031 L 184.96875 170.832031 L 184.96875 169.625 " fill-opacity="1" fill-rule="nonzero"/><path fill="#0c1459" d="M 184.96875 176.382812 L 149.136719 176.382812 L 149.136719 177.589844 L 184.96875 177.589844 L 184.96875 176.382812 " fill-opacity="1" fill-rule="nonzero"/><path fill="#0c1459" d="M 184.96875 183.140625 L 149.136719 183.140625 L 149.136719 184.347656 L 184.96875 184.347656 L 184.96875 183.140625 " fill-opacity="1" fill-rule="nonzero"/><path fill="#0c1459" d="M 183.207031 189.898438 C 179.335938 189.898438 152.976562 189.898438 149.136719 189.898438 C 149.136719 190.339844 149.136719 190.667969 149.136719 191.105469 C 153.238281 191.105469 177.753906 191.105469 181.835938 191.105469 C 182.019531 190.945312 183.070312 190.023438 183.207031 189.898438 " fill-opacity="1" fill-rule="nonzero"/><path fill="#0c1459" d="M 149.136719 197.261719 L 149.136719 197.867188 L 177.691406 197.867188 L 178.394531 196.65625 L 149.136719 196.65625 L 149.136719 197.261719 " fill-opacity="1" fill-rule="nonzero"/><path fill="#0c1459" d="M 149.136719 204.019531 L 149.136719 204.625 L 173.753906 204.625 L 174.101562 204.019531 L 174.457031 203.417969 L 149.136719 203.417969 L 149.136719 204.019531 " fill-opacity="1" fill-rule="nonzero"/><path fill="#0c1459" d="M 149.136719 210.777344 L 149.136719 211.382812 L 184.96875 211.382812 L 184.96875 210.175781 L 170.933594 210.175781 L 170.433594 210.324219 L 170.519531 210.175781 L 149.136719 210.175781 L 149.136719 210.777344 " fill-opacity="1" fill-rule="nonzero"/><path fill="#0c1459" d="M 234.78125 165.050781 C 229.488281 158.292969 229.070312 157.058594 226.476562 157.058594 C 224.714844 157.058594 224.015625 157.863281 221.304688 159.992188 L 231.460938 172.957031 L 234.070312 170.910156 C 235.886719 169.484375 236.207031 166.863281 234.78125 165.050781 " fill-opacity="1" fill-rule="nonzero"/><path fill="#0c1459" d="M 216.046875 164.109375 C 219.78125 168.878906 222.425781 172.25 226.207031 177.078125 L 229.007812 174.878906 C 222.765625 166.914062 225.015625 169.78125 218.851562 161.917969 L 216.046875 164.109375 " fill-opacity="1" fill-rule="nonzero"/><path fill="#0c1459" d="M 174.75 206.9375 C 175.050781 206.425781 174.285156 207.742188 181.128906 195.980469 C 183.289062 198.730469 184.636719 200.449219 186.917969 203.359375 C 174.289062 207.078125 176.042969 206.558594 174.75 206.9375 Z M 213.59375 166.035156 C 210.246094 168.65625 187.300781 186.640625 183.769531 189.40625 C 183.757812 189.417969 183.757812 189.410156 183.746094 189.421875 C 180.988281 191.851562 181.511719 191.390625 181.40625 191.488281 C 180.976562 192.222656 170.9375 209.457031 170.433594 210.324219 C 173.742188 209.347656 189.5625 204.695312 191.34375 204.171875 C 193.425781 202.726562 191.492188 204.066406 193.910156 202.390625 C 196.957031 200.003906 220.425781 181.605469 223.75 179 C 214.964844 167.78125 222.398438 177.265625 213.59375 166.035156 " fill-opacity="1" fill-rule="nonzero"/></svg>